{"title":"Shadow 2013 Hindi Movie Xvid DTH-RIP-GOPI SAHI-PDR-ICTV","uid":9219803,"size":732558726,"categoryP":"video","categoryS":"movies","magnet":"?xt=urn:btih:d330c64611aeee0b0fc71903fd7320ffdac02a19&amp;dn=Shadow+2013+Hindi+Movie+Xvid+DTH-RIP-GOPI+SAHI-PDR-ICTV&amp;tr=udp%3A%2F%2Ftracker.openbittorrent.com%3A80&amp;tr=udp%3A%2F%2Fopen.demonii.com%3A1337&amp;tr=udp%3A%2F%2Ftracker.coppersurfer.tk%3A6969&amp;tr=udp%3A%2F%2Fexodus.desync.com%3A6969","seeders":0,"leechers":1,"uploader":"jatt13","files":1,"time":1384916613,"description":"[img]http://imageshack.us/a/img5/2880/v2od.jpg[/img]\nVideo\nID                             : 0\nFormat                         : MPEG-4 Visual\nFormat profile                 : Advanced Simple@L5\nFormat settings, BVOP          : Yes\nFormat settings, QPel          : No\nFormat settings, GMC           : No warppoints\nFormat settings, Matrix        : Default (H.263)\nCodec ID                       : XVID\nCodec ID/Hint                  : XviD\nDuration                       : 2h 12mn\nBit rate                       : 652 Kbps\nWidth                          : 640 pixels\nHeight                         : 272 pixels\nDisplay aspect ratio           : 2.35:1\nFrame rate                     : 25.000 fps\nColor space                    : YUV\nChroma subsampling             : 4:2:0\nBit depth                      : 8 bits\nScan type                      : Progressive\nCompression mode               : Lossy\nBits/(Pixel*Frame)             : 0.150\nStream size                    : 617 MiB (88%)\nWriting library                : XviD 1.2.1 (UTC 2008-12-04)\n\nAudio\nID                             : 1\nFormat                         : MPEG Audio\nFormat version                 : Version 1\nFormat profile                 : Layer 3\nMode                           : Joint stereo\nMode extension                 : MS Stereo\nCodec ID                       : 55\nCodec ID/Hint                  : MP3\nDuration                       : 2h 12mn\nBit rate mode                  : Constant\nBit rate                       : 80.0 Kbps\nChannel count                  : 2 channels\nSampling rate                  : 32.0 KHz\nCompression mode               : Lossy\nStream size                    : 75.7 MiB (11%)\nAlignment                      : Aligned on interleaves\nInterleave, duration           : 160 ms (4.00 video frames)\nInterleave, preload duration   : 216 ms\nTitle                          : finalize T80 2_0ch 256Kbps DELAY 0ms\nWriting library                : LAME3.99r\nEncoding settings              : -m j -V 4 -q 2 -lowpass 13.5 -b 80\n[img]http://imageshack.us/a/img194/3188/cwgr.jpg[/img]\n[img]http://imageshack.us/a/img542/9650/ciqz.png[/img]\n[img]http://imageshack.us/a/img855/7496/cmbw.png[/img]\n[img]http://imageshack.us/a/img194/7015/svbw.png[/img]","torrent":{"xt":"urn:btih:d330c64611aeee0b0fc71903fd7320ffdac02a19","amp;dn":"Shadow+2013+Hindi+Movie+Xvid+DTH-RIP-GOPI+SAHI-PDR-ICTV","amp;tr":["udp%3A%2F%2Ftracker.openbittorrent.com%3A80","udp%3A%2F%2Fopen.demonii.com%3A1337","udp%3A%2F%2Ftracker.coppersurfer.tk%3A6969","udp%3A%2F%2Fexodus.desync.com%3A6969"],"infoHash":"d330c64611aeee0b0fc71903fd7320ffdac02a19","infoHashBuffer":{"type":"Buffer","data":[211,48,198,70,17,174,238,11,15,199,25,3,253,115,32,255,218,192,42,25]},"announce":[],"urlList":[]}}